# xmcd CD database file
# Copyright (C) 1993-1998 Ti Kan
#
# Track frame offsets:
#	150
#	16175
#	21627
#	36545
#	52257
#	67212
#	87965
#	101547
#	117485
#	129000
#	145992
#
# Disc length: 2133 seconds
#
# Revision: 1
# Processed by: cddbd v1.4b41PL1 Copyright (c) Steve Scherf et al.
# Submitted via: NotifyCDPlayer(CDDB) 1.51.3
#
DISCID=a208530b
DTITLE=The Humphries - The Humphries
DYEAR=1900
DGENRE=
TTITLE0=Love's Not a Charm
TTITLE1=O Sole Minor
TTITLE2=Houseboat
TTITLE3=Ça plane pour moi
TTITLE4=Little Black Box
TTITLE5=Brooklyn
TTITLE6=Patois
TTITLE7=Peaches
TTITLE8=Jakob's Hair
TTITLE9=Killing Time
TTITLE10=Book of Looks
EXTD=
EXTT0=
EXTT1=
EXTT2=
EXTT3=
EXTT4=
EXTT5=
EXTT6=
EXTT7=
EXTT8=
EXTT9=
EXTT10=
PLAYORDER=
